<svg width="40" height="24" viewBox="0 0 40 24" fill="none" xmlns="http://www.w3.org/2000/svg">
<path d="M12 10.5C11.1716 10.5 10.5 11.1716 10.5 12C10.5 12.8284 11.1716 13.5 12 13.5L12 10.5ZM39.0607 13.0607C39.6464 12.4749 39.6464 11.5251 39.0607 10.9393L29.5147 1.3934C28.9289 0.807613 27.9792 0.807613 27.3934 1.3934C26.8076 1.97919 26.8076 2.92893 27.3934 3.51472L35.8787 12L27.3934 20.4853C26.8076 21.0711 26.8076 22.0208 27.3934 22.6066C27.9792 23.1924 28.9289 23.1924 29.5147 22.6066L39.0607 13.0607ZM12 13.5L38 13.5L38 10.5L12 10.5L12 13.5Z" fill="black"/>
<circle cx="6" cy="12" r="2" fill="black"/>
<circle cx="1" cy="12" r="1" fill="black"/>
</svg>
