<svg width="70" height="70" viewBox="0 0 70 70" fill="none" xmlns="http://www.w3.org/2000/svg">
<g clip-path="url(#clip0_401_2)">
<path d="M3.21289 3.67773C2.0918 3.96484 0.943359 4.85352 0.382812 5.91992L0.0683594 6.49414L0.0273438 28.8477L0 51.2012L0.410156 52.0488C0.902344 53.0332 1.69531 53.7578 2.73438 54.1543C3.37695 54.4004 3.82812 54.4141 9.00977 54.4141H14.6152L14.8887 54.0586C15.2441 53.6074 15.2578 53.0332 14.916 52.623L14.6562 52.2949L9.06445 52.2266C3.92383 52.1582 3.45898 52.1445 3.11719 51.8984C2.5293 51.502 2.21484 50.873 2.10547 49.8613L2.00977 48.9453H35H67.9902L67.8945 49.875C67.7852 50.9551 67.375 51.666 66.6777 51.9941C66.2402 52.2129 64.2715 52.2266 42.3418 52.2266H18.498L18.1289 52.5137C17.6504 52.8828 17.6367 53.6895 18.0879 54.1133C18.4023 54.4004 18.498 54.4141 21.7793 54.4141C23.6387 54.4141 25.1562 54.4551 25.1562 54.5098C25.1562 54.6465 24.3633 59.2539 24.2539 59.7871C24.1719 60.1562 24.1719 60.1562 23.0645 60.1562C22.4492 60.1562 21.7109 60.2246 21.4238 60.3066C20.7539 60.4844 19.8516 61.3047 19.5371 62.002C19.209 62.7129 19.209 63.8887 19.5371 64.5996C19.8516 65.2969 20.7539 66.1172 21.4238 66.2949C22.1484 66.5 47.8516 66.5 48.5762 66.2949C49.2461 66.1172 50.1484 65.2969 50.4629 64.5996C50.791 63.8887 50.791 62.7129 50.4629 62.002C50.1484 61.3047 49.2461 60.4844 48.5762 60.3066C48.2891 60.2246 47.5508 60.1562 46.9355 60.1562C45.8281 60.1562 45.8281 60.1562 45.7461 59.7871C45.6367 59.2539 44.8438 54.6465 44.8438 54.5098C44.8438 54.4551 49.7383 54.4141 55.7129 54.4141C66.1035 54.4141 66.6094 54.4004 67.2656 54.1543C68.3047 53.7578 69.0977 53.0332 69.5898 52.0488L70 51.2012L69.9727 28.8477L69.9316 6.49414L69.6172 5.91992C69.207 5.14062 68.4961 4.45703 67.6348 3.99219L66.9238 3.62305L59.6777 3.58203C55.6992 3.55469 52.2949 3.58203 52.1309 3.62305C51.7344 3.71875 51.3516 4.42969 51.4609 4.86719C51.5156 5.05859 51.666 5.31836 51.8164 5.46875C52.0762 5.72852 52.3086 5.74219 59.0625 5.74219C66.6504 5.74219 66.5684 5.72852 67.293 6.50781C67.498 6.72656 67.7168 7.17773 67.7988 7.51953C67.8945 7.92969 67.9492 14.6562 67.9492 27.4395V46.7578H35H2.05078V27.4805C2.05078 14.6562 2.0918 7.99805 2.1875 7.54688C2.35156 6.80859 2.83008 6.20703 3.5 5.93359C3.88281 5.76953 7.50586 5.74219 26.0176 5.74219H48.084L48.4531 5.45508C48.959 5.05859 48.959 4.23828 48.4531 3.8418L48.084 3.55469L25.8535 3.56836C13.6309 3.58203 3.44531 3.62305 3.21289 3.67773ZM43.0664 57.2852L43.5449 60.0879L41.9316 60.1562C40.4277 60.2246 40.291 60.252 40.0449 60.5527C39.6895 60.9902 39.7168 61.6055 40.127 62.002L40.4551 62.3438H44.1328C47.6465 62.3438 47.8242 62.3574 48.1797 62.6309C48.6582 63.0137 48.6582 63.5879 48.1797 63.9707C47.8105 64.2578 47.7559 64.2578 35 64.2578C22.2441 64.2578 22.1895 64.2578 21.8203 63.9707C21.3828 63.6289 21.3555 63.0957 21.7656 62.6582L22.0527 62.3438H29.2852H36.5176L36.8457 62.002C37.2969 61.5645 37.2969 60.9355 36.8457 60.498L36.5176 60.1562H31.4727H26.4277L26.8926 57.4492C27.1523 55.9727 27.3848 54.6738 27.4121 54.5781C27.4668 54.4414 29.0527 54.4141 35.0273 54.4414L42.5879 54.4824L43.0664 57.2852Z" fill="white"/>
<path d="M6.31643 11.2519C5.94729 11.6484 5.93362 12.3046 6.27542 12.7285L6.53518 13.0566H18.7168C32.2383 13.0566 31.2403 13.125 31.4043 12.1406C31.459 11.7304 31.418 11.58 31.1309 11.2929L30.7754 10.9375H18.6895H6.60354L6.31643 11.2519Z" fill="white"/>
<path d="M56.8066 11.2793L56.4648 11.6074V18.6484C56.4648 23.625 56.5059 25.7852 56.6152 26.0312C56.8613 26.5645 57.3945 26.6602 60.2246 26.6602C63.0547 26.6602 63.5879 26.5645 63.834 26.0312C63.9434 25.7852 63.9844 23.625 63.9844 18.6484V11.6074L63.6426 11.2793L63.3145 10.9375H60.2246H57.1348L56.8066 11.2793ZM61.7969 18.7988V24.4727H60.2246H58.6523V18.7988V13.125H60.2246H61.7969V18.7988Z" fill="white"/>
<path d="M37.2422 13.9592C36.9961 14.2326 36.9824 14.5334 36.9824 20.1116V25.9631L37.2969 26.2776C37.5977 26.5784 37.707 26.592 40.291 26.633C43.2578 26.6877 43.7773 26.633 44.1738 26.2366C44.4199 25.9905 44.4336 25.7444 44.4336 20.0979C44.4336 14.3967 44.4199 14.2053 44.1602 13.9455C43.9004 13.6858 43.709 13.6721 40.7012 13.6721C37.625 13.6721 37.4883 13.6858 37.2422 13.9592ZM42.2461 20.1662V24.4729H40.6738H39.1016V20.1662V15.8596H40.6738H42.2461V20.1662Z" fill="white"/>
<path d="M6.31641 16.7205C5.74219 17.3357 6.04297 18.3201 6.86329 18.5251C7.04102 18.5662 10.5273 18.5798 14.6016 18.5662L22.0391 18.5251L22.2988 18.197C22.6406 17.7732 22.6406 17.0349 22.2852 16.6794C22.0117 16.406 21.834 16.406 14.3145 16.406H6.60352L6.31641 16.7205Z" fill="white"/>
<path d="M25.4297 16.6795C25.0742 17.035 25.0742 17.7733 25.416 18.1971C25.6758 18.5116 25.7442 18.5252 28.0274 18.5663C30.584 18.6209 31.0352 18.5389 31.2949 17.9647C31.5137 17.4725 31.4864 17.1717 31.1582 16.7616L30.8848 16.4061H28.2871C25.8809 16.4061 25.6895 16.4198 25.4297 16.6795Z" fill="white"/>
<path d="M47.0996 16.8846L46.7578 17.2127V21.5741C46.7578 25.7303 46.7715 25.9354 47.0312 26.2225C47.4141 26.6327 47.8652 26.6874 50.9004 26.6327L53.6211 26.5917L53.9492 26.2088L54.2773 25.826V21.5194V17.2127L53.9355 16.8846L53.6074 16.5428H50.5176H47.4277L47.0996 16.8846ZM52.0898 21.6014V24.4725H50.5176H48.9453V21.6014V18.7303H50.5176H52.0898V21.6014Z" fill="white"/>
<path d="M6.31635 22.873C6.01557 23.1875 5.93354 23.6934 6.0976 24.1309C6.34369 24.7461 6.23432 24.7461 18.7167 24.7461C27.0429 24.7461 30.5703 24.7051 30.8027 24.5957C31.4453 24.3086 31.623 23.502 31.1581 22.9141L30.8847 22.5586H18.7441H6.60346L6.31635 22.873Z" fill="white"/>
<path d="M6.28906 28.3008C6.125 28.4648 6.01562 28.752 6.01562 29.0527C6.01562 29.3535 6.125 29.6406 6.28906 29.8047C6.54883 30.0645 6.74023 30.0781 9.16016 30.0781C11.5801 30.0781 11.7715 30.0645 12.0312 29.8047C12.1953 29.6406 12.3047 29.3535 12.3047 29.0527C12.3047 28.752 12.1953 28.4648 12.0312 28.3008C11.7715 28.041 11.5801 28.0273 9.16016 28.0273C6.74023 28.0273 6.54883 28.041 6.28906 28.3008Z" fill="white"/>
<path d="M15.1758 28.3008C15.0117 28.4648 14.9023 28.752 14.9023 29.0527C14.9023 29.3535 15.0117 29.6406 15.1758 29.8047C15.4492 30.0781 15.627 30.0781 23.1602 30.0781H30.8848L31.1582 29.7227C31.5273 29.2578 31.5273 28.8477 31.1582 28.3828L30.8848 28.0273H23.1602C15.627 28.0273 15.4492 28.0273 15.1758 28.3008Z" fill="white"/>
<path d="M54.7285 29.8318C54.5781 30.0095 53.3887 32.2244 52.0899 34.7673L49.7383 39.4021L49.1231 38.2537C48.7813 37.6384 47.8926 35.8884 47.1406 34.3845C46.3887 32.8806 45.6504 31.5134 45.4863 31.3357C45.0899 30.9119 44.2695 30.9119 43.9277 31.3494C43.791 31.5271 43.1895 32.6345 42.5879 33.8103L41.4942 35.9568H39.4981C37.666 35.9568 37.4883 35.9841 37.2559 36.2302C36.9004 36.6267 36.9141 37.3923 37.2969 37.7752C37.5977 38.0623 37.707 38.0759 40.1133 38.0759C42.0684 38.0759 42.6699 38.0349 42.8477 37.8845C42.9707 37.7752 43.4492 36.9822 43.9141 36.1209L44.7481 34.5623L46.7715 38.5818C47.8926 40.783 48.918 42.6697 49.041 42.7517C49.3692 43.0115 50.2442 42.9705 50.4629 42.7107C50.5723 42.5877 51.7344 40.3591 53.0742 37.7615L55.4805 33.0447L56.6426 35.3552C57.2852 36.6404 57.9141 37.7752 58.0508 37.8709C58.3516 38.1306 62.4258 38.24 63.1777 38.0213C63.957 37.7888 64.2168 36.9685 63.6973 36.3259C63.4238 35.9705 63.3965 35.9568 61.4141 35.9295L59.4043 35.8884L57.8867 32.8806C57.0391 31.24 56.2461 29.8045 56.1094 29.7088C55.7266 29.4216 55.043 29.49 54.7285 29.8318Z" fill="white"/>
<path d="M6.30279 33.7148C5.91998 34.207 5.93365 34.7949 6.35748 35.2188L6.6856 35.5469L18.8126 35.5195L30.9258 35.4785L31.1856 35.1504C31.5411 34.7129 31.5137 34.0977 31.1036 33.7012L30.7754 33.3594H18.6758H6.57623L6.30279 33.7148Z" fill="white"/>
<path d="M6.28906 39.1016C5.93359 39.457 5.93359 40.1953 6.28906 40.5781C6.57617 40.8789 6.57617 40.8789 12.5781 40.8789H18.5801L18.8535 40.5234C19.2227 40.0586 19.2227 39.6484 18.8535 39.1836L18.5801 38.8281H12.5645C6.74023 38.8281 6.54883 38.8418 6.28906 39.1016Z" fill="white"/>
</g>
<defs>
<clipPath id="clip0_401_2">
<rect width="70" height="70" fill="white"/>
</clipPath>
</defs>
</svg>
