<svg width="1445" height="500" viewBox="0 0 1445 500" fill="none" xmlns="http://www.w3.org/2000/svg">
<rect width="500" height="500" fill="white"/>
<path fill-rule="evenodd" clip-rule="evenodd" d="M154.259 100H109V354.65H109L109 399.999H109V400H154.259V399.999H309.765V354.65L154.259 354.65V100Z" fill="black"/>
<path fill-rule="evenodd" clip-rule="evenodd" d="M272.629 162.79C258.169 162.79 244.034 167.087 232.011 175.136C219.988 183.186 210.617 194.627 205.084 208.012C199.55 221.398 198.102 236.127 200.923 250.338C203.744 264.548 210.707 277.601 220.932 287.846C231.157 298.091 244.184 305.068 258.366 307.894C272.548 310.721 287.249 309.27 300.608 303.726C313.967 298.181 325.386 288.792 333.419 276.745C341.453 264.698 345.741 250.535 345.741 236.046H391C391 259.504 384.058 282.435 371.051 301.939C358.044 321.444 339.557 336.646 317.928 345.622C296.298 354.599 272.498 356.948 249.537 352.372C226.575 347.795 205.483 336.499 188.929 319.912C172.375 303.325 161.101 282.192 156.534 259.185C151.966 236.178 154.31 212.33 163.269 190.658C172.229 168.986 187.4 150.462 206.866 137.43C226.332 124.397 249.218 117.441 272.629 117.441V162.79Z" fill="black"/>
<path d="M268.503 301.866C270.114 302.829 272.523 302.926 274.021 302.078C275.258 301.361 276.381 299.876 276.756 298.49C277.83 294.347 273.419 290.482 269.447 292.113L268.6 292.471L260.901 284.757C253.364 277.172 253.25 277.058 254.259 277.482C266.794 282.897 281.769 281.919 293.604 274.954C296.175 273.421 299.399 271.072 300.733 269.735L301.645 268.822L302.784 269.963C304.591 271.774 304.542 271.79 308.449 267.876C311.379 264.94 311.672 264.581 311.656 264.075C311.64 263.57 311.168 263.031 308.286 260.144C305.373 257.225 304.884 256.801 304.445 256.85C304.07 256.866 303.208 257.633 300.636 260.21C296.729 264.124 296.794 263.961 298.585 265.755L299.675 266.848L298.487 267.876C288.639 276.275 275.844 279.668 263.359 277.172C257.531 275.998 252.208 273.666 246.999 269.98L246.283 269.49L247.276 268.495C248.904 266.864 248.888 266.848 244.997 262.95C241.107 259.052 241.09 259.035 239.463 260.666L238.47 261.661L237.949 260.944C236.646 259.117 234.384 255.121 233.44 253.001C228.752 242.334 228.882 230.003 233.733 219.303C235.312 215.829 237.298 212.763 240.228 209.175L241.09 208.147L242.197 209.256C243.988 211.05 243.809 211.132 247.732 207.201C250.304 204.624 251.069 203.76 251.085 203.385C251.134 202.944 250.711 202.455 247.764 199.503C244.704 196.436 244.346 196.143 243.841 196.159C243.337 196.175 242.816 196.632 240.065 199.389C236.191 203.27 236.191 203.238 237.965 205.016L239.088 206.141L237.574 207.854C234.433 211.426 231.356 216.726 229.598 221.587C225.903 231.944 226.229 243.753 230.493 253.669C230.917 254.68 230.803 254.566 223.233 247.015L215.534 239.3L215.892 238.452C217.52 234.472 213.662 230.052 209.527 231.128C207.232 231.732 205.49 233.771 205.376 236.005C205.165 240.034 208.86 242.953 212.522 241.665L213.613 241.29L224.91 252.609L236.207 263.928L235.149 264.989C234.221 265.918 234.075 266.163 234.091 266.864C234.075 267.664 234.107 267.696 237.184 270.779C240.26 273.861 240.293 273.894 241.09 273.878C241.79 273.894 242.035 273.747 242.962 272.818L244.02 271.757L255.317 283.077L266.614 294.396L266.24 295.489C265.768 296.875 265.914 298.457 266.631 299.795C267.233 300.92 267.559 301.279 268.503 301.866Z" fill="black"/>
<path d="M251.102 261.663C251.525 261.859 305.959 243.624 306.447 243.135C306.675 242.906 308.4 238.046 310.321 232.337L313.772 221.931L299.854 207.986L285.937 194.041L275.551 197.498C269.854 199.423 265.003 201.152 264.775 201.38C264.547 201.609 260.266 214.119 255.252 229.189C247.455 252.627 246.186 256.639 246.43 257.08C246.869 257.781 247.472 258.026 248.155 257.765C248.595 257.618 252.925 253.377 264.303 241.977L279.849 226.4L279.816 225.65C279.8 225.242 279.686 224.41 279.572 223.839C279.132 221.638 280.776 218.979 282.958 218.294C288.183 216.679 292.155 222.942 288.362 226.808C287.19 228.015 285.497 228.602 284.032 228.308C283.462 228.194 282.632 228.08 282.225 228.064L281.476 228.031L265.915 243.624C250.255 259.314 249.897 259.706 250.076 260.603C250.125 260.945 250.646 261.467 251.102 261.663Z" fill="black"/>
<path d="M318.753 222.745C319.258 222.729 319.779 222.272 322.546 219.5C324.451 217.591 325.818 216.091 325.916 215.797C326.062 215.324 325.688 214.949 309.296 198.525C292.904 182.1 292.529 181.725 292.057 181.872C291.764 181.97 290.25 183.356 288.33 185.281C285.399 188.216 285.106 188.575 285.123 189.081C285.139 189.619 286.523 191.038 301.678 206.223C317.484 222.06 318.232 222.778 318.753 222.745Z" fill="black"/>
<path d="M328.911 207.58C332.427 204.057 332.427 204.057 332.411 203.258L332.427 202.458L318.9 188.904L305.373 175.351L304.575 175.367C303.778 175.351 303.778 175.351 300.261 178.874L296.762 182.38L311.086 196.733L325.411 211.087L328.911 207.58Z" fill="black"/>
<g filter="url(#filter0_d_461_63)">
<path d="M689.727 260.805H560V254.477H561.406C562.344 254.477 563.555 254.281 565.039 253.891C568.711 252.953 571.836 250.688 574.414 247.094C577.695 242.406 579.336 235.57 579.336 226.586V125.219C579.336 120.297 578.867 116.156 577.93 112.797C576.289 106.781 573.555 102.562 569.727 100.141C566.914 98.3438 564.141 97.4453 561.406 97.4453H560V91H630.078V97.4453H628.672C627.734 97.4453 626.523 97.6406 625.039 98.0312C621.367 98.9688 618.242 101.234 615.664 104.828C612.383 109.438 610.742 116.234 610.742 125.219V247.797H662.305C667.383 247.406 671.602 246.547 674.961 245.219C678.398 243.812 681.133 242.172 683.164 240.297C685.195 238.422 686.719 236.625 687.734 234.906C688.75 233.109 689.375 231.625 689.609 230.453L690.078 228.578H696.523L692.188 247.914L689.727 260.805Z" fill="white"/>
<path d="M857.656 261.156H790.391V254.711L791.914 254.359C792.93 254.203 794.141 253.773 795.547 253.07C796.953 252.289 798.281 251.078 799.531 249.438C801.328 247.016 802.227 243.852 802.227 239.945C802.227 237.836 801.953 235.453 801.406 232.797L797.188 218.617H739.531L734.961 232.562C734.18 236.156 733.789 239.203 733.789 241.703V244.281C733.867 245.688 734.258 247.211 734.961 248.852C735.742 250.414 736.68 251.625 737.773 252.484C739.492 253.969 741.445 254.711 743.633 254.711H744.688V261.156H699.688V254.711H701.328C703.672 254.711 706.406 253.422 709.531 250.844C713.828 247.094 717.656 240.766 721.016 231.859L766.133 91.9375H792.5L832.227 227.406C835.117 237.016 839.258 244.125 844.648 248.734C848.555 252.094 852.305 254.008 855.898 254.477L857.656 254.711V261.156ZM793.32 205.727L770 126.508L743.867 205.727H793.32Z" fill="white"/>
<path d="M948.711 261.039H878.75V254.594H880.156C881.094 254.594 882.305 254.398 883.789 254.008C887.383 253.07 890.469 250.805 893.047 247.211C896.406 242.602 898.086 235.805 898.086 226.82V104.242H877.812C872.656 104.633 868.359 105.531 864.922 106.938C861.562 108.266 858.867 109.867 856.836 111.742C854.805 113.539 853.281 115.336 852.266 117.133C851.328 118.93 850.703 120.414 850.391 121.586L849.922 123.344H843.594L847.93 104.008L850.391 91.1172H1090.74L1093.2 104.008L1097.54 123.344H1091.09L1090.62 121.586C1089.84 118.148 1087.7 114.867 1084.18 111.742C1079.49 107.445 1072.54 104.945 1063.32 104.242H929.375V226.82C929.375 231.742 929.844 235.883 930.781 239.242C932.5 245.258 935.234 249.477 938.984 251.898C941.797 253.695 944.57 254.594 947.305 254.594H948.711V261.039ZM1076.45 261.039H955.156V254.594H956.68C957.617 254.594 958.789 254.398 960.195 254.008C963.867 253.07 966.992 250.805 969.57 247.211C972.852 242.602 974.492 235.805 974.492 226.82V162.25C974.492 157.25 974.023 153.109 973.086 149.828C971.445 143.812 968.711 139.594 964.883 137.172C962.07 135.375 959.336 134.438 956.68 134.359H955.156V128.031H974.492V127.914H1076.45L1078.91 140.805L1083.24 160.141H1076.8L1076.45 158.383C1075.59 154.945 1073.44 151.664 1070 148.539C1065.23 144.242 1058.24 141.742 1049.02 141.039H1005.9V188.969H1022.89C1033.44 188.969 1041.76 186.703 1047.85 182.172C1052.15 178.891 1055 175.375 1056.41 171.625L1057.11 169.633V221.312L1056.41 219.32C1055 215.57 1052.15 212.055 1047.85 208.773C1041.76 204.242 1033.44 201.977 1022.89 201.977H1005.9V248.031H1049.02C1058.24 247.25 1065.23 244.75 1070 240.531C1073.44 237.328 1075.59 234.008 1076.45 230.57L1076.8 228.812H1083.24L1078.91 248.148L1076.45 261.039Z" fill="white"/>
<path d="M1226.68 261.039H1105.39V254.594H1106.91C1107.85 254.594 1109.02 254.398 1110.43 254.008C1114.1 253.07 1117.23 250.805 1119.8 247.211C1123.09 242.602 1124.73 235.805 1124.73 226.82V125.453C1124.73 120.453 1124.26 116.312 1123.32 113.031C1121.68 107.016 1118.95 102.797 1115.12 100.375C1112.3 98.5781 1109.57 97.6406 1106.91 97.5625H1105.39V91.2344H1124.73V91.1172H1226.68L1229.14 104.008L1233.48 123.344H1227.03L1226.68 121.586C1225.82 118.148 1223.67 114.867 1220.23 111.742C1215.47 107.445 1208.48 104.945 1199.26 104.242H1156.13V169.281H1173.12C1183.67 169.281 1191.99 167.016 1198.09 162.484C1202.38 159.203 1205.23 155.688 1206.64 151.938L1207.34 149.945V201.625L1206.64 199.633C1205.23 195.883 1202.38 192.367 1198.09 189.086C1191.99 184.555 1183.67 182.289 1173.12 182.289H1156.13V248.031H1199.26C1208.48 247.25 1215.47 244.75 1220.23 240.531C1223.67 237.328 1225.82 234.008 1226.68 230.57L1227.03 228.812H1233.48L1229.14 248.148L1226.68 261.039Z" fill="white"/>
<path d="M1311.29 261.039H1241.33V254.594H1242.73C1243.67 254.594 1244.88 254.398 1246.37 254.008C1249.96 253.07 1253.05 250.805 1255.62 247.211C1258.98 242.602 1260.66 235.805 1260.66 226.82V125.453C1260.66 120.453 1260.2 116.312 1259.26 113.031C1257.54 107.016 1254.8 102.797 1251.05 100.375C1248.24 98.5781 1245.47 97.6406 1242.73 97.5625H1241.33V91.2344H1260.66V91.1172H1362.62L1365.08 104.008L1369.41 123.344H1362.97L1362.5 121.586C1361.64 118.148 1359.49 114.867 1356.05 111.742C1351.37 107.445 1344.41 104.945 1335.2 104.242H1291.95V169.281H1309.06C1319.61 169.281 1327.89 167.016 1333.91 162.484C1338.28 159.203 1341.13 155.688 1342.46 151.938L1343.28 149.945V201.625L1342.46 199.633C1341.13 195.883 1338.28 192.367 1333.91 189.086C1327.89 184.555 1319.61 182.289 1309.06 182.289H1291.95V226.82C1291.95 231.742 1292.42 235.883 1293.36 239.242C1295.08 245.258 1297.85 249.477 1301.68 251.898C1304.49 253.695 1307.23 254.594 1309.88 254.594H1311.29V261.039Z" fill="white"/>
</g>
<g filter="url(#filter1_d_461_63)">
<path d="M614.868 408.385H614.619C603.773 408.219 594.255 405.507 586.064 400.25C577.93 394.993 571.538 387.826 566.89 378.751C562.297 369.675 560 359.549 560 348.37C560 337.136 562.297 327.009 566.89 317.989C571.538 308.914 577.93 301.747 586.064 296.49C594.255 291.178 603.773 288.438 614.619 288.272H614.702C626.6 288.272 636.45 292.146 644.253 299.894C647.518 303.214 650.063 306.562 651.89 309.938C653.771 313.313 655.044 316.191 655.708 318.57C656.261 320.396 656.538 322.582 656.538 325.128C656.538 325.349 656.51 326.207 656.455 327.701C656.455 329.195 655.736 331.104 654.297 333.429C652.913 335.753 650.451 337.219 646.909 337.828L645.581 337.911C642.703 337.911 640.296 336.86 638.359 334.757C636.423 332.654 635.454 330.468 635.454 328.199C635.454 323.772 634.762 319.511 633.379 315.416C632.051 311.321 629.837 307.779 626.738 304.791C623.695 301.803 619.655 299.645 614.619 298.316C613.18 297.984 611.714 297.818 610.22 297.818C609.445 297.818 608.643 297.874 607.812 297.984C602.334 298.814 597.492 301.692 593.286 306.617C589.08 311.542 585.981 317.962 583.989 325.875C582.827 330.689 582.246 335.864 582.246 341.397C582.246 357.224 586.396 369.841 594.697 379.249C602.998 388.601 612.157 393.277 622.173 393.277C623.169 393.277 624.94 393.222 627.485 393.111C630.031 392.945 633.379 391.756 637.529 389.542C641.735 387.328 645.553 383.621 648.984 378.419L654.629 380.743C650.755 389.653 645.664 396.487 639.355 401.246C633.102 406.005 624.94 408.385 614.868 408.385Z" fill="white"/>
<path d="M775.156 407.804H771.836C762.76 407.804 756.092 406.752 751.831 404.649C747.57 402.547 744.499 399.337 742.617 395.021C740.736 390.649 739.076 385.06 737.637 378.253C736.917 375.209 735.396 371.861 733.071 368.209C730.747 364.557 727.593 361.375 723.608 358.663C719.679 355.896 714.865 354.319 709.165 353.932H693.726V383.565C693.726 387.107 694.058 390.04 694.722 392.364C695.884 396.625 697.821 399.614 700.532 401.329C702.524 402.602 704.489 403.266 706.426 403.321H707.422V407.804H657.783V403.321H658.779C659.443 403.321 660.301 403.183 661.353 402.906C663.953 402.242 666.167 400.637 667.993 398.092C670.317 394.827 671.479 389.985 671.479 383.565V311.847C671.479 308.305 671.147 305.372 670.483 303.048C669.321 298.787 667.384 295.771 664.673 294C662.681 292.727 660.716 292.091 658.779 292.091H657.783V287.608H671.479V287.525H723.276C730.138 287.525 736.004 288.438 740.874 290.265C750.226 293.751 756.424 299.7 759.468 308.111C760.907 312.04 761.626 316.108 761.626 320.313C761.626 324.575 760.907 328.753 759.468 332.848C758.029 336.943 755.705 340.623 752.495 343.888C749.341 347.097 745.218 349.615 740.127 351.441C747.155 355.149 752.55 360.13 756.313 366.383C758.748 370.589 760.243 375.071 760.796 379.83V380.162C761.073 381.767 761.266 383.565 761.377 385.558C761.488 387.494 761.681 389.514 761.958 391.617C762.29 393.665 762.871 395.546 763.701 397.262C765.693 401.191 769.512 403.155 775.156 403.155V407.804ZM716.802 344.469C725.545 344.469 731.66 341.453 735.146 335.421C737.526 331.271 738.716 326.235 738.716 320.313C738.716 314.282 737.581 309.329 735.312 305.455C731.937 299.645 725.711 296.739 716.636 296.739L693.726 296.822V344.469H716.802Z" fill="white"/>
<path d="M867.046 407.97H781.133V403.404H782.212C782.876 403.404 783.706 403.266 784.702 402.989C787.303 402.325 789.517 400.72 791.343 398.175C793.667 394.91 794.829 390.095 794.829 383.731V311.93C794.829 308.388 794.497 305.455 793.833 303.131C792.671 298.87 790.734 295.882 788.022 294.166C786.03 292.893 784.093 292.229 782.212 292.174H781.133V287.691H794.829V287.608H867.046L868.789 296.739L871.86 310.436H867.295L867.046 309.19C866.437 306.756 864.915 304.431 862.48 302.218C859.105 299.174 854.152 297.403 847.622 296.905H817.075V342.975H829.111C836.582 342.975 842.476 341.37 846.792 338.16C849.836 335.836 851.855 333.346 852.852 330.689L853.35 329.278V365.885L852.852 364.474C851.855 361.817 849.836 359.327 846.792 357.003C842.476 353.793 836.582 352.188 829.111 352.188H817.075V398.756H847.622C854.152 398.202 859.105 396.432 862.48 393.443C864.915 391.174 866.437 388.823 867.046 386.388L867.295 385.143H871.86L868.789 398.839L867.046 407.97Z" fill="white"/>
<path d="M986.162 408.053H938.516V403.487L939.595 403.238C940.314 403.128 941.172 402.823 942.168 402.325C943.164 401.772 944.105 400.914 944.99 399.752C946.263 398.036 946.899 395.795 946.899 393.028C946.899 391.534 946.706 389.846 946.318 387.965L943.33 377.921H902.49L899.253 387.799C898.7 390.344 898.423 392.503 898.423 394.273V396.1C898.478 397.096 898.755 398.175 899.253 399.337C899.806 400.444 900.47 401.301 901.245 401.91C902.463 402.962 903.846 403.487 905.396 403.487H906.143V408.053H874.268V403.487H875.43C877.09 403.487 879.027 402.574 881.24 400.748C884.284 398.092 886.995 393.609 889.375 387.301L921.333 288.189H940.01L968.149 384.146C970.197 390.953 973.13 395.989 976.948 399.254C979.715 401.633 982.371 402.989 984.917 403.321L986.162 403.487V408.053ZM940.591 368.79L924.072 312.677L905.562 368.79H940.591Z" fill="white"/>
<path d="M1050.66 407.97H1001.1V403.404H1002.1C1002.76 403.404 1003.62 403.266 1004.67 402.989C1007.22 402.325 1009.4 400.72 1011.23 398.175C1013.61 394.91 1014.8 390.095 1014.8 383.731V296.905H1000.44C996.787 297.182 993.743 297.818 991.309 298.814C988.929 299.755 987.02 300.89 985.581 302.218C984.142 303.491 983.063 304.763 982.344 306.036C981.68 307.309 981.237 308.36 981.016 309.19L980.684 310.436H976.201L979.272 296.739L981.016 287.608H1070.75L1072.49 296.739L1075.56 310.436H1071L1070.66 309.19C1070.11 306.756 1068.59 304.431 1066.1 302.218C1062.78 299.174 1057.85 297.403 1051.32 296.905H1036.96V383.731C1036.96 387.218 1037.29 390.151 1037.96 392.53C1039.18 396.791 1041.11 399.78 1043.77 401.495C1045.76 402.768 1047.73 403.404 1049.66 403.404H1050.66V407.97Z" fill="white"/>
<path d="M1129.85 407.804H1080.29V403.238H1081.29C1081.95 403.238 1082.78 403.1 1083.78 402.823C1086.38 402.159 1088.59 400.554 1090.42 398.009C1092.8 394.744 1093.99 389.929 1093.99 383.565V311.764C1093.99 308.222 1093.66 305.289 1092.99 302.965C1092.33 300.585 1091.47 298.676 1090.42 297.237C1089.37 295.799 1088.26 294.719 1087.1 294C1085.94 293.225 1084.83 292.727 1083.78 292.506C1082.78 292.229 1081.95 292.063 1081.29 292.008H1080.29V287.525H1093.99V287.359H1116.15V287.525H1129.85V292.008H1128.85C1128.19 292.063 1127.33 292.229 1126.28 292.506C1125.23 292.727 1124.12 293.225 1122.96 294C1121.8 294.719 1120.69 295.799 1119.64 297.237C1118.64 298.676 1117.81 300.585 1117.15 302.965C1116.48 305.289 1116.15 308.222 1116.15 311.764V383.565C1116.15 387.052 1116.48 389.985 1117.15 392.364C1117.81 394.688 1118.64 396.57 1119.64 398.009C1120.69 399.448 1121.8 400.554 1122.96 401.329C1124.12 402.049 1125.23 402.547 1126.28 402.823C1127.33 403.1 1128.19 403.238 1128.85 403.238H1129.85V407.804Z" fill="white"/>
<path d="M1186.79 407.97C1175.95 407.97 1166.4 405.313 1158.15 400.001C1149.96 394.633 1143.54 387.411 1138.9 378.336C1134.25 369.26 1131.92 359.106 1131.92 347.872C1131.92 336.694 1134.25 326.567 1138.9 317.491C1143.54 308.416 1149.96 301.222 1158.15 295.909C1166.4 290.541 1175.95 287.857 1186.79 287.857C1197.58 287.857 1207.1 290.541 1215.35 295.909C1223.59 301.222 1230.01 308.416 1234.6 317.491C1239.25 326.567 1241.58 336.694 1241.58 347.872C1241.58 359.106 1239.25 369.26 1234.6 378.336C1230.01 387.411 1223.59 394.633 1215.35 400.001C1207.1 405.313 1197.58 407.97 1186.79 407.97ZM1191.69 398.175L1193.76 398.092C1199.58 397.096 1204.5 393.775 1208.54 388.131C1212.64 382.486 1215.57 375.652 1217.34 367.628C1218.45 362.592 1219 357.556 1219 352.521C1219 349.477 1218.81 346.461 1218.42 343.473C1216.92 333.512 1214.13 324.99 1210.03 317.906C1205.94 310.768 1201.21 305.427 1195.84 301.886C1191.3 298.897 1186.79 297.403 1182.31 297.403C1181.42 297.403 1180.57 297.459 1179.74 297.569C1174.31 298.399 1169.47 301.277 1165.21 306.202C1161 311.072 1157.93 317.491 1156 325.46C1154.78 330.33 1154.17 335.559 1154.17 341.148C1154.17 353.876 1157.13 365.414 1163.05 375.763C1167.15 382.957 1171.93 388.629 1177.41 392.779C1182.17 396.376 1186.93 398.175 1191.69 398.175Z" fill="white"/>
<path d="M1347.83 407.804H1338.61L1267.06 324.132V383.565C1267.06 387.107 1267.39 390.04 1268.06 392.364C1269.27 396.625 1271.21 399.614 1273.87 401.329C1275.86 402.602 1277.82 403.238 1279.76 403.238L1280.76 403.321V407.804H1244.15V403.321L1245.15 403.238C1245.81 403.238 1246.67 403.1 1247.72 402.823C1250.27 402.159 1252.45 400.582 1254.28 398.092C1256.66 394.771 1257.85 389.929 1257.85 383.565V311.764C1257.79 308.277 1257.46 305.344 1256.85 302.965C1255.63 298.704 1253.67 295.715 1250.96 294C1248.96 292.727 1247.03 292.091 1245.15 292.091H1244.15V287.525H1267.06L1338.61 372.442V311.764C1338.61 308.277 1338.28 305.344 1337.62 302.965C1336.4 298.704 1334.44 295.715 1331.72 294C1329.73 292.727 1327.79 292.091 1325.91 292.091H1324.92V287.525H1361.52V292.091C1360.2 292.091 1359.01 292.229 1357.95 292.506C1355.35 293.17 1353.17 294.775 1351.4 297.32C1349.02 300.585 1347.83 305.4 1347.83 311.764V407.804Z" fill="white"/>
</g>
<rect x="10" y="10" width="1425" height="480" stroke="white" stroke-width="20"/>
<defs>
<filter id="filter0_d_461_63" x="530" y="81" width="869.414" height="230.156" filterUnits="userSpaceOnUse" color-interpolation-filters="sRGB">
<feFlood flood-opacity="0" result="BackgroundImageFix"/>
<feColorMatrix in="SourceAlpha" type="matrix" values="0 0 0 0 0 0 0 0 0 0 0 0 0 0 0 0 0 0 127 0" result="hardAlpha"/>
<feOffset dy="20"/>
<feGaussianBlur stdDeviation="15"/>
<feComposite in2="hardAlpha" operator="out"/>
<feColorMatrix type="matrix" values="0 0 0 0 0 0 0 0 0 0 0 0 0 0 0 0 0 0 1 0"/>
<feBlend mode="normal" in2="BackgroundImageFix" result="effect1_dropShadow_461_63"/>
<feBlend mode="normal" in="SourceGraphic" in2="effect1_dropShadow_461_63" result="shape"/>
</filter>
<filter id="filter1_d_461_63" x="530" y="277.359" width="861.523" height="181.025" filterUnits="userSpaceOnUse" color-interpolation-filters="sRGB">
<feFlood flood-opacity="0" result="BackgroundImageFix"/>
<feColorMatrix in="SourceAlpha" type="matrix" values="0 0 0 0 0 0 0 0 0 0 0 0 0 0 0 0 0 0 127 0" result="hardAlpha"/>
<feOffset dy="20"/>
<feGaussianBlur stdDeviation="15"/>
<feComposite in2="hardAlpha" operator="out"/>
<feColorMatrix type="matrix" values="0 0 0 0 0 0 0 0 0 0 0 0 0 0 0 0 0 0 1 0"/>
<feBlend mode="normal" in2="BackgroundImageFix" result="effect1_dropShadow_461_63"/>
<feBlend mode="normal" in="SourceGraphic" in2="effect1_dropShadow_461_63" result="shape"/>
</filter>
</defs>
</svg>
