<svg width="500" height="500" viewBox="0 0 500 500" fill="none" xmlns="http://www.w3.org/2000/svg">
<rect width="500" height="500" fill="black"/>
<path fill-rule="evenodd" clip-rule="evenodd" d="M154.259 100H109V354.65H109L109 399.999H109V400H154.259V399.999H309.765V354.65L154.259 354.65V100Z" fill="white"/>
<path fill-rule="evenodd" clip-rule="evenodd" d="M272.629 162.79C258.169 162.79 244.034 167.087 232.011 175.136C219.988 183.186 210.617 194.627 205.084 208.012C199.55 221.398 198.102 236.127 200.923 250.338C203.744 264.548 210.707 277.601 220.932 287.846C231.157 298.091 244.184 305.068 258.366 307.894C272.548 310.721 287.249 309.27 300.608 303.726C313.967 298.181 325.386 288.792 333.419 276.745C341.453 264.698 345.741 250.535 345.741 236.046H391C391 259.504 384.058 282.435 371.051 301.939C358.044 321.444 339.557 336.646 317.928 345.622C296.298 354.599 272.498 356.948 249.537 352.372C226.575 347.795 205.483 336.499 188.929 319.912C172.375 303.325 161.101 282.192 156.534 259.185C151.966 236.178 154.31 212.33 163.269 190.658C172.229 168.986 187.4 150.462 206.866 137.43C226.332 124.397 249.218 117.441 272.629 117.441V162.79Z" fill="white"/>
<path d="M268.503 301.866C270.114 302.829 272.523 302.926 274.021 302.078C275.258 301.361 276.381 299.876 276.756 298.49C277.83 294.347 273.419 290.482 269.447 292.113L268.6 292.471L260.901 284.757C253.364 277.172 253.25 277.058 254.259 277.482C266.794 282.897 281.769 281.919 293.604 274.954C296.175 273.421 299.399 271.072 300.733 269.735L301.645 268.822L302.784 269.963C304.591 271.774 304.542 271.79 308.449 267.876C311.379 264.94 311.672 264.581 311.656 264.075C311.64 263.57 311.168 263.031 308.286 260.144C305.373 257.225 304.884 256.801 304.445 256.85C304.07 256.866 303.208 257.633 300.636 260.21C296.729 264.124 296.794 263.961 298.585 265.755L299.675 266.848L298.487 267.876C288.639 276.275 275.844 279.668 263.359 277.172C257.531 275.998 252.208 273.666 246.999 269.98L246.283 269.49L247.276 268.495C248.904 266.864 248.888 266.848 244.997 262.95C241.107 259.052 241.09 259.035 239.463 260.666L238.47 261.661L237.949 260.944C236.646 259.117 234.384 255.121 233.44 253.001C228.752 242.334 228.882 230.003 233.733 219.303C235.312 215.829 237.298 212.763 240.228 209.175L241.09 208.147L242.197 209.256C243.988 211.05 243.809 211.132 247.732 207.201C250.304 204.624 251.069 203.76 251.085 203.385C251.134 202.944 250.711 202.455 247.764 199.503C244.704 196.436 244.346 196.143 243.841 196.159C243.337 196.175 242.816 196.632 240.065 199.389C236.191 203.27 236.191 203.238 237.965 205.016L239.088 206.141L237.574 207.854C234.433 211.426 231.356 216.726 229.598 221.587C225.903 231.944 226.229 243.753 230.493 253.669C230.917 254.68 230.803 254.566 223.233 247.015L215.534 239.3L215.892 238.452C217.52 234.472 213.662 230.052 209.527 231.128C207.232 231.732 205.49 233.771 205.376 236.005C205.165 240.034 208.86 242.953 212.522 241.665L213.613 241.29L224.91 252.609L236.207 263.928L235.149 264.989C234.221 265.918 234.075 266.163 234.091 266.864C234.075 267.664 234.107 267.696 237.184 270.779C240.26 273.861 240.293 273.894 241.09 273.878C241.79 273.894 242.035 273.747 242.962 272.818L244.02 271.757L255.317 283.077L266.614 294.396L266.24 295.489C265.768 296.875 265.914 298.457 266.631 299.795C267.233 300.92 267.559 301.279 268.503 301.866Z" fill="white"/>
<path d="M251.102 261.663C251.525 261.859 305.959 243.624 306.447 243.135C306.675 242.906 308.4 238.046 310.321 232.337L313.772 221.931L299.854 207.986L285.937 194.041L275.551 197.498C269.854 199.423 265.003 201.152 264.775 201.38C264.547 201.609 260.266 214.119 255.252 229.189C247.455 252.627 246.186 256.639 246.43 257.08C246.869 257.781 247.472 258.026 248.155 257.765C248.595 257.618 252.925 253.377 264.303 241.977L279.849 226.4L279.816 225.65C279.8 225.242 279.686 224.41 279.572 223.839C279.132 221.638 280.776 218.979 282.958 218.294C288.183 216.679 292.155 222.942 288.362 226.808C287.19 228.015 285.497 228.602 284.032 228.308C283.462 228.194 282.632 228.08 282.225 228.064L281.476 228.031L265.915 243.624C250.255 259.314 249.897 259.706 250.076 260.603C250.125 260.945 250.646 261.467 251.102 261.663Z" fill="white"/>
<path d="M318.753 222.745C319.258 222.729 319.779 222.272 322.546 219.5C324.451 217.591 325.818 216.091 325.916 215.797C326.062 215.324 325.688 214.949 309.296 198.525C292.904 182.1 292.529 181.725 292.057 181.872C291.764 181.97 290.25 183.356 288.33 185.281C285.399 188.216 285.106 188.575 285.123 189.081C285.139 189.619 286.523 191.038 301.678 206.223C317.484 222.06 318.232 222.778 318.753 222.745Z" fill="white"/>
<path d="M328.911 207.58C332.427 204.057 332.427 204.057 332.411 203.258L332.427 202.458L318.9 188.904L305.373 175.351L304.575 175.367C303.778 175.351 303.778 175.351 300.261 178.874L296.762 182.38L311.086 196.733L325.411 211.087L328.911 207.58Z" fill="white"/>
</svg>
